<svg width="51" height="50" viewBox="0 0 51 50" fill="none" xmlns="http://www.w3.org/2000/svg">
<path fill-rule="evenodd" clip-rule="evenodd" d="M7.31361 45.0016L3.30127 0H47.3906L43.3739 44.9942L25.3192 50L7.31361 45.0016Z" fill="#0071BC"/>
<path fill-rule="evenodd" clip-rule="evenodd" d="M25.3828 46.1717L39.9538 42.1633L43.3677 3.74805H25.3828V46.1717Z" fill="#29ABE2"/>
<path fill-rule="evenodd" clip-rule="evenodd" d="M12.4854 20.2808L12.9687 25.792L25.3828 20.2808V14.7607L12.4854 20.2808Z" fill="#B3B3B3"/>
<path fill-rule="evenodd" clip-rule="evenodd" d="M39.1318 8.86816L25.3828 14.7606V20.2807L38.6578 14.3793L39.1318 8.86816Z" fill="#E6E6E6"/>
<path fill-rule="evenodd" clip-rule="evenodd" d="M25.3829 34.7011L25.3403 34.7075L19.1837 33.0541L18.7815 28.6582H13.2407L14.0139 37.3184L25.339 40.4542L25.3829 40.4438V34.7011Z" fill="#E6E6E6"/>
<path fill-rule="evenodd" clip-rule="evenodd" d="M25.3828 20.2812V25.7924H32.1232L31.5106 32.9978L25.3828 34.7058V40.4481L36.6703 37.3124L38.1567 20.2812H25.3828Z" fill="white"/>
<path fill-rule="evenodd" clip-rule="evenodd" d="M25.3828 20.2812H12.4854L12.9687 25.7924H25.3828V20.2812Z" fill="#E6E6E6"/>
<path fill-rule="evenodd" clip-rule="evenodd" d="M25.3832 14.3793V8.86816H25.3272H11.5059L11.9949 14.3793H25.3832Z" fill="#E6E6E6"/>
<path fill-rule="evenodd" clip-rule="evenodd" d="M25.3828 8.86816V14.3102V14.3793H38.6578L39.1318 8.86816H25.3828Z" fill="white"/>
</svg>
