<svg width="51" height="50" viewBox="0 0 51 50" fill="none" xmlns="http://www.w3.org/2000/svg">
<path fill-rule="evenodd" clip-rule="evenodd" d="M7.62746 45.0018L3.61523 0H47.7027L43.6862 44.9948L25.632 50L7.62746 45.0018Z" fill="#E44D26"/>
<path fill-rule="evenodd" clip-rule="evenodd" d="M25.6592 46.1743L40.2479 42.1298L43.6802 3.67969H25.6592V46.1743Z" fill="#F16529"/>
<path d="M18.3556 20.3704H25.6591V25.8896H13.308L11.8193 9.19922H25.6591V14.7186H17.8512L18.3556 20.3704Z" fill="#EBEBEB"/>
<path d="M25.6349 34.711L25.6591 34.7046V40.447L25.6337 40.454L14.3278 37.3154L13.5546 28.6494H19.0951L19.488 33.0513L25.6349 34.711Z" fill="#EBEBEB"/>
<path d="M25.6396 9.19922H39.4656L38.9714 14.7186H25.6396V9.19922Z" fill="white"/>
<path d="M25.6396 25.8896V20.3704H38.4691L38.3345 21.8525L36.9545 37.3154L25.6396 40.4513V34.7092L31.7954 33.0477L32.436 25.8896H25.6396Z" fill="white"/>
</svg>
