<svg width="50" height="50" viewBox="0 0 50 50" fill="none" xmlns="http://www.w3.org/2000/svg">
<g clip-path="url(#clip0_5453_2783)">
<rect width="50" height="50" fill="white"/>
<path fill-rule="evenodd" clip-rule="evenodd" d="M0 0H50V50H0V0Z" fill="#F7DF1E"/>
<path fill-rule="evenodd" clip-rule="evenodd" d="M13.1471 41.7839L16.9734 39.4683C17.7116 40.7771 18.3831 41.8844 19.9938 41.8844C21.5378 41.8844 22.5112 41.2805 22.5112 38.9313V22.9551H27.2099V38.9977C27.2099 43.8644 24.3572 46.0795 20.1952 46.0795C16.4364 46.0795 14.2545 44.1328 13.147 41.7835" fill="black"/>
<path fill-rule="evenodd" clip-rule="evenodd" d="M29.7617 41.2805L33.5876 39.0653C34.5947 40.7101 35.9037 41.9183 38.2194 41.9183C40.1663 41.9183 41.4078 40.9449 41.4078 39.6023C41.4078 37.9913 40.1325 37.4207 37.9844 36.4812L36.8101 35.9774C33.42 34.5345 31.1712 32.7221 31.1712 28.8958C31.1712 25.3717 33.8562 22.6865 38.0517 22.6865C41.0389 22.6865 43.1869 23.7271 44.7306 26.4457L41.0722 28.795C40.2666 27.3519 39.3943 26.7814 38.0518 26.7814C36.6757 26.7814 35.803 27.6541 35.803 28.795C35.803 30.2047 36.6757 30.7754 38.6893 31.6481L39.8639 32.1515C43.8579 33.8633 46.1067 35.6084 46.1067 39.5352C46.1067 43.7644 42.784 46.08 38.3202 46.08C33.957 46.08 31.1377 43.9992 29.7618 41.2805" fill="black"/>
</g>
<defs>
<clipPath id="clip0_5453_2783">
<rect width="50" height="50" fill="white"/>
</clipPath>
</defs>
</svg>
