<svg width="50" height="50" viewBox="0 0 50 50" fill="none" xmlns="http://www.w3.org/2000/svg">
<g clip-path="url(#clip0_5851_8666)">
<path d="M48.9926 11.6087C49.0104 11.6739 49.0197 11.7412 49.0197 11.8087V22.3081C49.0197 22.5824 48.8713 22.8357 48.6308 22.9722L39.7212 28.0458V38.1022C39.7212 38.3758 39.5742 38.6285 39.3343 38.7663L20.7364 49.3556C20.6938 49.3795 20.6474 49.3948 20.6009 49.4111C20.5835 49.4168 20.5671 49.4274 20.5487 49.4321C20.4187 49.466 20.282 49.466 20.152 49.4321C20.1308 49.4264 20.1114 49.4149 20.0911 49.4073C20.0485 49.392 20.004 49.3786 19.9634 49.3556L1.3694 38.7663C1.12897 38.6296 0.980469 38.3764 0.980469 38.1022V6.60401C0.980469 6.53511 0.990144 6.46812 1.00756 6.40305C1.01336 6.38104 1.02691 6.36095 1.03465 6.33894C1.04916 6.29875 1.0627 6.2576 1.08399 6.22028C1.0985 6.1954 1.11979 6.17531 1.1372 6.15234C1.15945 6.12172 1.17977 6.09014 1.20589 6.06335C1.22814 6.04134 1.25717 6.02507 1.28232 6.00593C1.31038 5.98296 1.33553 5.95808 1.36746 5.9399H1.36843L10.6659 0.645236C10.9055 0.508879 11.2003 0.508879 11.4399 0.645236L20.7374 5.9399H20.7393C20.7703 5.95904 20.7964 5.98296 20.8244 6.00497C20.8496 6.02411 20.8776 6.04134 20.8999 6.06239C20.927 6.09014 20.9463 6.12172 20.9696 6.15234C20.986 6.17531 21.0083 6.1954 21.0218 6.22028C21.0441 6.25856 21.0566 6.29875 21.0721 6.33894C21.0798 6.36095 21.0934 6.38104 21.0992 6.40401C21.117 6.46922 21.1261 6.53646 21.1263 6.60401V26.2774L28.8739 21.865V11.8078C28.8739 11.7408 28.8835 11.6728 28.901 11.6087C28.9077 11.5858 28.9203 11.5657 28.928 11.5437C28.9435 11.5035 28.9571 11.4623 28.9784 11.425C28.9929 11.4001 29.0141 11.38 29.0306 11.3571C29.0538 11.3264 29.0732 11.2949 29.1003 11.2681C29.1225 11.2461 29.1506 11.2298 29.1757 11.2106C29.2047 11.1877 29.2299 11.1628 29.2609 11.1446H29.2618L38.5603 5.84995C38.7998 5.7134 39.0947 5.7134 39.3343 5.84995L48.6317 11.1446C48.6646 11.1638 48.6898 11.1877 48.7188 11.2097C48.743 11.2288 48.771 11.2461 48.7933 11.2671C48.8204 11.2949 48.8397 11.3264 48.863 11.3571C48.8804 11.38 48.9017 11.4001 48.9152 11.425C48.9375 11.4623 48.95 11.5035 48.9655 11.5437C48.9742 11.5657 48.9868 11.5858 48.9926 11.6087ZM47.4698 21.865V13.1341L44.2162 14.9867L39.7212 17.5464V26.2774L47.4707 21.865H47.4698ZM38.1723 37.6591V28.9224L33.7509 31.4199L21.1253 38.5471V47.3661L38.1723 37.6591ZM2.53037 7.92935V37.6591L19.5754 47.3652V38.5481L10.6707 33.5635L10.6678 33.5615L10.664 33.5596C10.634 33.5424 10.6088 33.5175 10.5808 33.4965C10.5566 33.4773 10.5285 33.462 10.5072 33.441L10.5053 33.4381C10.4801 33.4142 10.4627 33.3845 10.4414 33.3577C10.4221 33.3319 10.3989 33.3099 10.3834 33.2831L10.3824 33.2802C10.365 33.2515 10.3544 33.217 10.3418 33.1845C10.3292 33.1558 10.3128 33.129 10.305 33.0984V33.0974C10.2954 33.0611 10.2934 33.0228 10.2896 32.9855C10.2857 32.9568 10.2779 32.9281 10.2779 32.8993V32.8974V12.3417L5.784 9.781L2.53037 7.93031V7.92935ZM11.0539 2.19354L3.30726 6.60401L11.0519 11.0145L18.7976 6.60305L11.0519 2.19354H11.0539ZM15.0824 29.7185L19.5764 27.1597V7.92935L16.3228 9.78196L11.8278 12.3417V31.5721L15.0824 29.7185ZM38.9473 7.39826L31.2016 11.8087L38.9473 16.2192L46.6919 11.8078L38.9473 7.39826ZM38.1723 17.5464L33.6774 14.9867L30.4238 13.1341V21.865L34.9177 24.4239L38.1723 26.2774V17.5464ZM20.3494 37.2218L31.7105 30.8066L37.3896 27.6009L29.6498 23.1933L20.7383 28.2678L12.6163 32.8927L20.3494 37.2218Z" fill="#FF2D20"/>
</g>
<defs>
<clipPath id="clip0_5851_8666">
<rect width="50" height="50" fill="white"/>
</clipPath>
</defs>
</svg>
