<svg width="51" height="50" viewBox="0 0 51 50" fill="none" xmlns="http://www.w3.org/2000/svg">
<path d="M41.7385 17.1531C41.2198 16.9745 40.6823 16.8056 40.1289 16.6458C40.2199 16.2746 40.3033 15.9082 40.3776 15.548C41.596 9.63377 40.7993 4.86919 38.0791 3.30049C35.4707 1.79631 31.2048 3.36466 26.8966 7.11402C26.4823 7.47456 26.0668 7.85627 25.6516 8.25633C25.3749 7.99164 25.0986 7.73586 24.8231 7.4912C20.3079 3.48213 15.7821 1.79266 13.0645 3.3659C10.4586 4.87444 9.68686 9.3536 10.7836 14.9586C10.8895 15.5 11.0133 16.0528 11.1533 16.615C10.5128 16.7968 9.8944 16.9906 9.30274 17.1968C4.00915 19.0424 0.628418 21.9349 0.628418 24.9352C0.628418 28.0338 4.25763 31.1419 9.77132 33.0264C10.2064 33.1752 10.6579 33.3158 11.1232 33.4493C10.9722 34.0572 10.8408 34.653 10.7306 35.2341C9.68481 40.7418 10.5015 45.1151 13.1004 46.6141C15.7849 48.1622 20.2902 46.571 24.6773 42.7362C25.024 42.433 25.372 42.1116 25.7206 41.7746C26.1725 42.2097 26.6236 42.6215 27.0723 43.0078C31.3217 46.6645 35.5186 48.1411 38.1152 46.6379C40.797 45.0854 41.6686 40.3874 40.5371 34.6715C40.4506 34.235 40.3501 33.789 40.2371 33.3351C40.5535 33.2416 40.8641 33.145 41.167 33.0446C46.899 31.1454 50.6284 28.0752 50.6284 24.9352C50.6284 21.924 47.1387 19.0121 41.7385 17.1531ZM40.4952 31.0171C40.2218 31.1076 39.9413 31.1951 39.6554 31.2799C39.0226 29.2766 38.1686 27.1464 37.1235 24.9456C38.1208 22.7971 38.9418 20.6942 39.5569 18.7039C40.0684 18.8519 40.5648 19.008 41.0432 19.1727C45.6701 20.7655 48.4924 23.1205 48.4924 24.9352C48.4924 26.868 45.4444 29.3772 40.4952 31.0171ZM38.4417 35.0863C38.942 37.6138 39.0135 39.899 38.682 41.6854C38.3842 43.2906 37.7854 44.3608 37.0449 44.7894C35.4692 45.7015 32.0995 44.5159 28.4654 41.3886C28.0488 41.0302 27.6291 40.6474 27.2082 40.2422C28.617 38.7014 30.0251 36.9101 31.3993 34.9207C33.8164 34.7062 36.1001 34.3556 38.171 33.8768C38.273 34.2883 38.3636 34.6918 38.4417 35.0863ZM17.6745 44.6318C16.135 45.1755 14.9089 45.191 14.1677 44.7637C12.5905 43.854 11.9349 40.3426 12.8292 35.6324C12.9317 35.093 13.0536 34.5389 13.1941 33.9725C15.2424 34.4254 17.5093 34.7513 19.9322 34.9478C21.3157 36.8944 22.7644 38.6838 24.2244 40.2505C23.9054 40.5585 23.5877 40.8516 23.2717 41.1279C21.3318 42.8236 19.3878 44.0267 17.6745 44.6318ZM10.4621 31.0053C8.02408 30.172 6.01065 29.0889 4.63054 27.9071C3.39042 26.8451 2.76431 25.7907 2.76431 24.9352C2.76431 23.1145 5.4787 20.7922 10.0058 19.2138C10.5551 19.0223 11.1302 18.8418 11.7269 18.6723C12.3526 20.7075 13.1733 22.8354 14.1638 24.9871C13.1605 27.1708 12.3281 29.3326 11.6963 31.3917C11.2709 31.2694 10.8587 31.1407 10.4621 31.0053ZM12.8798 14.5484C11.9401 9.74617 12.5642 6.12355 14.1346 5.21451C15.8073 4.2461 19.5062 5.62684 23.4048 9.08847C23.654 9.30972 23.9041 9.5413 24.155 9.78088C22.7023 11.3408 21.2668 13.1167 19.8956 15.0519C17.5441 15.2698 15.2931 15.62 13.2235 16.0888C13.0934 15.5654 12.9781 15.0512 12.8798 14.5484ZM34.4475 19.874C33.9528 19.0195 33.4449 18.1851 32.9271 17.3735C34.5224 17.5752 36.0509 17.8429 37.4862 18.1705C37.0553 19.5516 36.5182 20.9956 35.8859 22.4759C35.4324 21.6149 34.9527 20.7467 34.4475 19.874ZM25.6523 11.3074C26.6375 12.3748 27.6241 13.5665 28.5946 14.8595C27.6167 14.8133 26.6266 14.7892 25.6284 14.7892C24.6396 14.7892 23.6569 14.8127 22.685 14.8581C23.6565 13.5772 24.6516 12.3871 25.6523 11.3074ZM16.8007 19.8888C16.3064 20.7458 15.8356 21.6093 15.3892 22.4743C14.7672 20.9992 14.2351 19.5486 13.8004 18.1479C15.227 17.8286 16.7482 17.5676 18.3334 17.3698C17.8083 18.1888 17.2962 19.0293 16.8007 19.8886V19.8888ZM18.3791 32.6529C16.7413 32.4702 15.1972 32.2226 13.7709 31.9122C14.2126 30.4865 14.7564 29.0049 15.3916 27.498C15.8392 28.3624 16.3119 29.2263 16.8091 30.0851H16.8092C17.3157 30.9601 17.8404 31.8171 18.3791 32.6529ZM25.7114 38.7135C24.699 37.6212 23.6892 36.413 22.703 35.1133C23.6604 35.1509 24.6364 35.1701 25.6284 35.1701C26.6475 35.1701 27.655 35.1471 28.6467 35.103C27.673 36.426 26.6899 37.6362 25.7114 38.7135ZM35.9063 27.4212C36.5746 28.9444 37.138 30.4182 37.5853 31.8196C36.1356 32.1503 34.5704 32.4167 32.9212 32.6146C33.4402 31.7921 33.9526 30.9434 34.4561 30.0704C34.9654 29.1872 35.449 28.3026 35.9063 27.4212ZM32.6059 29.0033C31.8243 30.3585 31.0219 31.6522 30.2073 32.8734C28.7235 32.9794 27.1907 33.0341 25.6284 33.0341C24.0724 33.0341 22.5589 32.9858 21.1015 32.8912C20.254 31.654 19.4342 30.3565 18.6575 29.015H18.6577C17.8832 27.6771 17.1703 26.328 16.5243 24.9864C17.1701 23.6417 17.8811 22.2911 18.6512 20.9556L18.651 20.9559C19.4232 19.6169 20.2359 18.3257 21.0755 17.0963C22.5625 16.9839 24.0873 16.9252 25.6283 16.9252H25.6284C27.1764 16.9252 28.7032 16.9843 30.1897 17.0977C31.0165 18.3181 31.8237 19.6052 32.5988 20.9443C33.3828 22.2985 34.103 23.6402 34.7543 24.9561C34.105 26.2945 33.3864 27.6497 32.6059 29.0033ZM37.0121 5.15096C38.6865 6.11651 39.3376 10.0106 38.2856 15.1169C38.2185 15.4428 38.143 15.7746 38.0609 16.111C35.9865 15.6323 33.7339 15.2761 31.3755 15.0549C30.0017 13.0984 28.5779 11.3198 27.1489 9.7799C27.5331 9.41029 27.9168 9.05785 28.2988 8.72526C31.9902 5.51283 35.4402 4.2445 37.0121 5.15096ZM25.6284 20.4703C28.0942 20.4703 30.0932 22.4692 30.0932 24.9352C30.0932 27.401 28.0942 29.4 25.6284 29.4C23.1626 29.4 21.1636 27.401 21.1636 24.9352C21.1636 22.4692 23.1626 20.4703 25.6284 20.4703Z" fill="#00D8FF"/>
<defs>
<clipPath id="clip0_5453_2786">
<rect width="50" height="50" fill="white" transform="translate(0.628418)"/>
</clipPath>
</defs>
</svg>
