<svg width="46" height="50" viewBox="0 0 46 50" fill="none" xmlns="http://www.w3.org/2000/svg">
<path d="M39.5382 9.63155C39.4979 9.38982 39.2964 9.22867 39.095 9.22867C38.8936 9.22867 35.3482 9.14809 35.3482 9.14809C35.3482 9.14809 32.3669 6.24736 32.0849 5.96535C31.8029 5.68333 31.1986 5.76391 30.9971 5.84449C30.9971 5.84449 30.4331 6.00564 29.5065 6.28765C29.3453 5.76391 29.1036 5.15959 28.7813 4.51499C27.7338 2.50059 26.1626 1.41282 24.3094 1.41282C24.1885 1.41282 24.0676 1.41282 23.9065 1.45311C23.8662 1.37253 23.7856 1.33224 23.7453 1.25167C22.9396 0.365334 21.8921 -0.0375448 20.6432 0.00274313C18.2259 0.0833189 15.8086 1.8157 13.8748 4.91786C12.505 7.09341 11.4575 9.83299 11.1352 11.9682C8.35535 12.8143 6.42153 13.4186 6.38125 13.4589C4.97117 13.9021 4.93088 13.9424 4.76973 15.2719C4.64887 16.279 0.942383 44.682 0.942383 44.682L31.7223 50L45.0576 46.6964C45.0173 46.6561 39.5785 9.87327 39.5382 9.63155ZM27.9755 6.77111C27.2504 6.97255 26.4446 7.25456 25.5986 7.49629C25.5986 6.28765 25.4374 4.55527 24.8734 3.10491C26.6863 3.4675 27.5727 5.52218 27.9755 6.77111ZM23.9468 8.02003C22.3352 8.50349 20.5626 9.06752 18.7899 9.59126C19.2734 7.69773 20.2403 5.8042 21.3683 4.55527C21.8115 4.11211 22.4158 3.58836 23.1007 3.26606C23.8259 4.67614 23.987 6.65024 23.9468 8.02003ZM20.6834 1.61426C21.2475 1.61426 21.7309 1.73512 22.1338 1.97685C21.4892 2.33944 20.8446 2.8229 20.2403 3.4675C18.7093 5.1193 17.541 7.69773 17.0575 10.1553C15.6072 10.5985 14.1568 11.0416 12.8273 11.4445C13.6734 7.57686 16.9367 1.73512 20.6834 1.61426Z" fill="#95BF47"/>
<path d="M39.095 9.22867C38.8936 9.22867 35.3482 9.14809 35.3482 9.14809C35.3482 9.14809 32.3669 6.24736 32.0849 5.96535C31.964 5.84449 31.8435 5.80421 31.6823 5.76393V49.9597L45.0176 46.6561C45.0176 46.6561 39.5788 9.87329 39.5385 9.59128C39.4982 9.38984 39.2964 9.22867 39.095 9.22867Z" fill="#5E8E3E"/>
<path d="M24.2694 16.0776L22.7384 21.8791C22.7384 21.8791 21.0061 21.0733 18.9514 21.2345C15.9298 21.4359 15.9298 23.3294 15.9298 23.8129C16.0909 26.3913 22.8996 26.9554 23.3025 33.0388C23.5845 37.8331 20.7643 41.0964 16.6953 41.3381C11.7801 41.6604 9.08084 38.7597 9.08084 38.7597L10.1283 34.328C10.1283 34.328 12.8276 36.3827 15.0032 36.2216C16.4132 36.141 16.937 34.9726 16.8967 34.1669C16.6953 30.7827 11.1355 30.9841 10.7729 25.4244C10.4909 20.751 13.5528 15.997 20.3212 15.5942C22.9399 15.3927 24.2694 16.0776 24.2694 16.0776Z" fill="white"/>
</svg>
