<svg width="51" height="50" viewBox="0 0 51 50" fill="none" xmlns="http://www.w3.org/2000/svg">
<path d="M25.314 0C11.4971 0 0.313965 11.1831 0.313965 25C0.313965 38.8169 11.4971 50 25.314 50C39.1308 50 50.314 38.8169 50.314 25C50.314 11.1831 39.1308 0 25.314 0ZM38.8067 14.4652C37.6316 14.5057 36.8618 13.8169 36.8213 12.7634C36.8213 12.3582 36.9023 12.034 37.1859 11.6288C37.429 11.1426 37.5101 11.0616 37.5101 10.859C37.4696 10.2107 36.4971 10.1702 36.2135 10.1702C32.4452 10.2917 31.4728 15.3566 30.6624 19.4895L30.2572 21.6775C32.4047 22.0016 33.9444 21.5964 34.7953 21.0697C36.0109 20.2998 34.4712 19.4895 34.6333 18.5981C34.8358 17.7066 35.6462 17.2609 36.2945 17.2204C37.2264 17.1799 37.8747 18.1524 37.8342 19.1248C37.7937 20.705 35.6867 22.9335 31.4323 22.812C30.9055 22.812 30.4598 22.7715 30.0141 22.731L29.2038 27.1475C28.4744 30.47 27.5425 35.0486 24.1389 39.0195C21.2216 42.5041 18.2637 43.0308 16.9266 43.0713C14.455 43.1524 12.7937 41.8152 12.7532 40.0729C12.7127 38.3712 14.2119 37.4392 15.1843 37.3987C16.5214 37.3582 17.4128 38.3306 17.4534 39.4246C17.4939 40.3566 17.0076 40.6402 16.6835 40.8428C16.4809 41.0049 16.1568 41.2075 16.1568 41.5721C16.1568 41.7342 16.3593 42.0989 16.8861 42.0989C17.9396 42.0583 18.6284 41.5316 19.1146 41.2075C21.5457 39.1815 22.4777 35.6564 23.6932 29.295L23.9363 27.7553C24.3415 25.6888 24.8277 23.3387 25.5166 21.0292C23.8148 19.7326 22.8018 18.1524 20.4922 17.5446C18.912 17.0989 17.9801 17.4635 17.2913 18.3144C16.4809 19.3274 16.7645 20.624 17.5344 21.3938L18.7905 22.812C20.3707 24.6353 21.2216 26.013 20.8974 27.9173C20.4517 30.8752 16.8456 33.1848 12.5911 31.8882C8.94444 30.7536 8.29614 28.201 8.74184 26.7828C9.10651 25.5267 10.1195 25.2836 11.0919 25.6078C12.1454 25.9319 12.5506 27.188 12.2264 28.1605C12.1859 28.282 12.1454 28.4441 12.0239 28.6467C11.9023 28.9303 11.6997 29.1329 11.5781 29.4571C11.335 30.2269 12.3885 30.7536 13.1179 30.9968C14.7386 31.483 16.3188 30.6321 16.724 29.3355C17.0887 28.1199 16.3188 27.269 16.0352 26.9449L14.4955 25.2836C13.8067 24.5138 12.2264 22.3258 12.9963 19.8541C13.2799 18.9222 13.8877 17.9092 14.7791 17.2609C16.643 15.8428 18.7094 15.6402 20.6543 16.2075C23.1665 16.9368 24.382 18.5981 25.9623 19.8947C26.8537 17.342 28.0692 14.7893 29.8926 12.6823C31.5538 10.7374 33.7418 9.35981 36.2945 9.23825C38.8472 9.15721 40.7516 10.2917 40.8326 12.1151C40.7921 12.9254 40.3464 14.4246 38.8067 14.4652Z" fill="white"/>
</svg>
