<svg width="50" height="50" viewBox="0 0 50 50" fill="none" xmlns="http://www.w3.org/2000/svg">
<g clip-path="url(#clip0_5453_2811)">
<path d="M3.53984 24.9024C3.53984 33.3585 8.45407 40.6663 15.5801 44.1293L5.38943 16.2081C4.20406 18.865 3.53984 21.8053 3.53984 24.9024ZM39.3252 23.8244C39.3252 21.1841 38.3768 19.3557 37.5634 17.9325C36.4805 16.1728 35.4654 14.6825 35.4654 12.9228C35.4654 10.9589 36.9549 9.13089 39.0528 9.13089C39.1476 9.13089 39.2374 9.14268 39.3297 9.14797C35.5289 5.66585 30.465 3.53984 24.9033 3.53984C17.4398 3.53984 10.8736 7.36911 7.05366 13.1691C7.55488 13.1841 8.02724 13.1947 8.42846 13.1947C10.663 13.1947 14.122 12.9236 14.122 12.9236C15.2736 12.8557 15.4094 14.5472 14.2589 14.6833C14.2589 14.6833 13.1016 14.8195 11.8138 14.887L19.5935 38.0272L24.2687 24.0057L20.9402 14.8862C19.7898 14.8187 18.7 14.6825 18.7 14.6825C17.5488 14.615 17.6837 12.8549 18.835 12.9228C18.835 12.9228 22.363 13.1939 24.4622 13.1939C26.6963 13.1939 30.1557 12.9228 30.1557 12.9228C31.3081 12.8549 31.4435 14.5463 30.2927 14.6825C30.2927 14.6825 29.1329 14.8187 27.8476 14.8862L35.5679 37.8512L37.6988 30.7305C38.6224 27.7756 39.3252 25.6533 39.3252 23.8244ZM25.278 26.7711L18.8683 45.3967C20.7821 45.9594 22.8061 46.2671 24.9033 46.2671C27.3911 46.2671 29.7768 45.837 31.9976 45.0561C31.9402 44.9646 31.8882 44.8675 31.8455 44.7618L25.278 26.7711ZM43.6488 14.6528C43.7407 15.3333 43.7927 16.0638 43.7927 16.8496C43.7927 19.0175 43.3878 21.4545 42.1683 24.5016L35.6427 43.3687C41.9939 39.665 46.2659 32.7841 46.2659 24.9028C46.2663 21.1886 45.3175 17.6959 43.6488 14.6528ZM24.9033 0C11.172 0 0 11.1711 0 24.9024C0 38.6354 11.172 49.8061 24.9033 49.8061C38.6341 49.8061 49.8077 38.6354 49.8077 24.9024C49.8073 11.1711 38.6341 0 24.9033 0ZM24.9033 48.6646C11.8016 48.6646 1.14187 38.0049 1.14187 24.9024C1.14187 11.8008 11.8012 1.14187 24.9033 1.14187C38.0045 1.14187 48.6634 11.8008 48.6634 24.9024C48.6634 38.0049 38.0045 48.6646 24.9033 48.6646Z" fill="white"/>
</g>
<defs>
<clipPath id="clip0_5453_2811">
<rect width="50" height="50" fill="white"/>
</clipPath>
</defs>
</svg>
