<svg width="50" height="50" viewBox="0 0 50 50" fill="none" xmlns="http://www.w3.org/2000/svg">
<path d="M0 18.0952C0 11.7613 0 8.59435 1.23266 6.17511C2.31695 4.04708 4.04708 2.31695 6.17511 1.23266C8.59435 0 11.7613 0 18.0952 0H31.9048C38.2387 0 41.4057 0 43.8249 1.23266C45.9529 2.31695 47.6831 4.04708 48.7673 6.17511C50 8.59435 50 11.7613 50 18.0952V31.9048C50 38.2387 50 41.4057 48.7673 43.8249C47.6831 45.9529 45.9529 47.6831 43.8249 48.7673C41.4057 50 38.2387 50 31.9048 50H18.0952C11.7613 50 8.59435 50 6.17511 48.7673C4.04708 47.6831 2.31695 45.9529 1.23266 43.8249C0 41.4057 0 38.2387 0 31.9048V18.0952Z" fill="#001E36"/>
<path d="M26.2585 36.822H13.0431C12.8194 36.822 12.7076 36.6959 12.7077 36.4436V14.5985C12.683 14.4207 12.8364 14.2634 13.0096 14.2888H17.1017C17.2365 14.2694 17.3552 14.3936 17.3365 14.5297V32.4874H26.963C27.1642 32.4874 27.2424 32.5906 27.1977 32.797L26.594 36.5124C26.5888 36.6995 26.4353 36.8201 26.2585 36.822Z" fill="#31A8FF"/>
<path d="M29.6159 19.7003H33.272C33.4737 19.7021 33.6547 19.8449 33.708 20.0443C33.976 20.6545 34.009 21.3903 34.01 22.049C34.6369 21.3003 35.393 20.6764 36.2404 20.2086C37.1493 19.6811 38.1796 19.4138 39.2237 19.4345C39.397 19.4091 39.5504 19.5664 39.5256 19.7442V23.9068C39.5256 24.0675 39.4134 24.1476 39.1902 24.1476C37.6427 24.038 35.2334 24.413 34.109 25.6612V36.4847C34.109 36.6911 34.0195 36.7943 33.8406 36.7943H29.9179C29.7251 36.8226 29.5552 36.6448 29.5824 36.4502V24.698C29.5824 23.1232 29.6157 21.5011 29.3812 19.9411C29.345 19.7976 29.4791 19.6641 29.6159 19.7003Z" fill="#31A8FF"/>
</svg>
