<svg width="50" height="50" viewBox="0 0 50 50" fill="none" xmlns="http://www.w3.org/2000/svg">
<path d="M0 18.0952C0 11.7613 0 8.59435 1.23266 6.17511C2.31695 4.04708 4.04708 2.31695 6.17511 1.23266C8.59435 0 11.7613 0 18.0952 0H31.9048C38.2387 0 41.4057 0 43.8249 1.23266C45.9529 2.31695 47.6831 4.04708 48.7673 6.17511C50 8.59435 50 11.7613 50 18.0952V31.9048C50 38.2387 50 41.4057 48.7673 43.8249C47.6831 45.9529 45.9529 47.6831 43.8249 48.7673C41.4057 50 38.2387 50 31.9048 50H18.0952C11.7613 50 8.59435 50 6.17511 48.7673C4.04708 47.6831 2.31695 45.9529 1.23266 43.8249C0 41.4057 0 38.2387 0 31.9048V18.0952Z" fill="#49021F"/>
<path d="M17.1287 14.6348V36.5487C17.1287 36.7782 17.0281 36.8929 16.8269 36.8927H12.7683C12.5891 36.8927 12.4997 36.778 12.5 36.5487V14.6348C12.5 14.4515 12.6006 14.3598 12.8018 14.3596H16.8604C17.0143 14.3372 17.1506 14.4769 17.1287 14.6348Z" fill="#FF3366"/>
<path d="M29.1367 37.2366C27.5928 37.2607 26.0632 36.9317 24.6589 36.2734C21.6775 34.8582 20.382 31.7259 20.3823 28.4986C20.3566 25.2792 22.0617 22.2117 24.8434 20.6894C26.7636 19.5985 29.0223 19.3213 31.1827 19.5198V12.7426C31.1827 12.5824 31.2498 12.5018 31.384 12.5018H35.6102C35.7257 12.4849 35.828 12.5897 35.8115 12.7082V33.0396C35.8115 33.8785 35.8946 34.7144 35.9457 35.5509C35.9539 35.6938 35.8712 35.8352 35.7444 35.895C34.6541 36.3613 33.5185 36.7073 32.3567 36.927C31.2945 37.1281 30.2169 37.2317 29.1367 37.2366ZM31.1827 32.9708V23.5792C28.133 22.7318 25.1448 25.0602 25.1452 28.2922C25.0715 31.677 28.0894 33.8987 31.1827 32.9708Z" fill="#FF3366"/>
</svg>
