<svg width="50" height="50" viewBox="0 0 50 50" fill="none" xmlns="http://www.w3.org/2000/svg">
<path d="M0 18.0952C0 11.7613 0 8.59435 1.23266 6.17511C2.31695 4.04708 4.04708 2.31695 6.17511 1.23266C8.59435 0 11.7613 0 18.0952 0H31.9048C38.2387 0 41.4057 0 43.8249 1.23266C45.9529 2.31695 47.6831 4.04708 48.7673 6.17511C50 8.59435 50 11.7613 50 18.0952V31.9048C50 38.2387 50 41.4057 48.7673 43.8249C47.6831 45.9529 45.9529 47.6831 43.8249 48.7673C41.4057 50 38.2387 50 31.9048 50H18.0952C11.7613 50 8.59435 50 6.17511 48.7673C4.04708 47.6831 2.31695 45.9529 1.23266 43.8249C0 41.4057 0 38.2387 0 31.9048V18.0952Z" fill="#001E36"/>
<path d="M10.7144 36.6366V14.6494C10.7144 14.4998 10.7769 14.4143 10.9227 14.4143C13.0756 14.4143 15.2275 14.2861 17.381 14.2861C20.8754 14.2861 24.659 15.4809 25.9852 19.1366C26.2977 20.034 26.4644 20.9528 26.4644 21.9143C26.4644 23.7519 26.0477 25.269 25.2144 26.4656C22.8865 29.8082 18.8519 29.7562 15.2352 29.7562V36.6152C15.2635 36.8183 15.0904 36.9143 14.9227 36.9143H10.9644C10.7977 36.9143 10.7144 36.8289 10.7144 36.6366ZM15.256 18.5383V25.7178C16.69 25.8228 18.1907 25.8342 19.5685 25.3759C21.0896 24.9371 21.9227 23.6203 21.9227 22.0425C21.965 20.6981 21.2324 19.4081 19.9852 18.9229C18.6239 18.3569 16.7254 18.323 15.256 18.5383Z" fill="#31A8FF"/>
<path d="M39.4584 24.2993C38.828 23.9671 38.1567 23.7241 37.4626 23.5768C36.5708 23.367 33.0532 22.632 33.0519 24.4713C33.0831 25.4981 34.7131 26.0012 35.4333 26.2946C37.9616 27.1626 40.8227 28.7142 40.7665 31.8333C40.8438 35.7162 37.0817 37.2684 33.8569 37.2687C32.1781 37.2861 30.4291 37.0261 28.8927 36.3055C28.746 36.2278 28.6516 36.0618 28.6579 35.8926V32.1773C28.6414 32.0283 28.8013 31.8981 28.9263 32.0053C30.4317 32.9157 32.216 33.3577 33.9575 33.3813C34.7263 33.3813 36.2499 33.3068 36.2384 32.1773C36.2384 31.0933 34.4157 30.5949 33.6892 30.3196C32.636 29.9436 31.6374 29.4228 30.7207 28.7715C29.4397 27.8577 28.6361 26.3927 28.6579 24.7809C28.6504 21.1249 32.1134 19.4838 35.2321 19.483C36.6901 19.471 38.2557 19.579 39.6129 20.1711C39.8081 20.2285 39.8485 20.4341 39.8477 20.6183V24.0929C39.8601 24.3086 39.6205 24.382 39.4584 24.2993Z" fill="#31A8FF"/>
</svg>
