<svg width="50" height="50" viewBox="0 0 50 50" fill="none" xmlns="http://www.w3.org/2000/svg">
<path d="M16.7318 49.9997C21.3318 49.9997 25.0651 46.2663 25.0651 41.6663V33.333H16.7318C12.1318 33.333 8.39844 37.0663 8.39844 41.6663C8.39844 46.2663 12.1318 49.9997 16.7318 49.9997Z" fill="#0ACF83"/>
<path d="M8.39844 25.0003C8.39844 20.4003 12.1318 16.667 16.7318 16.667H25.0651V33.3337H16.7318C12.1318 33.3337 8.39844 29.6003 8.39844 25.0003Z" fill="#A259FF"/>
<path d="M8.39844 8.33333C8.39844 3.73333 12.1318 0 16.7318 0H25.0651V16.6667H16.7318C12.1318 16.6667 8.39844 12.9333 8.39844 8.33333Z" fill="#F24E1E"/>
<path d="M25.0649 0H33.3983C37.9983 0 41.7316 3.73333 41.7316 8.33333C41.7316 12.9333 37.9983 16.6667 33.3983 16.6667H25.0649V0Z" fill="#FF7262"/>
<path d="M41.7316 25.0003C41.7316 29.6003 37.9983 33.3337 33.3983 33.3337C28.7983 33.3337 25.0649 29.6003 25.0649 25.0003C25.0649 20.4003 28.7983 16.667 33.3983 16.667C37.9983 16.667 41.7316 20.4003 41.7316 25.0003Z" fill="#1ABCFE"/>
</svg>
