<svg width="50" height="50" viewBox="0 0 50 50" fill="none" xmlns="http://www.w3.org/2000/svg">
<path d="M0 18.0952C0 11.7613 0 8.59435 1.23266 6.17511C2.31695 4.04708 4.04708 2.31695 6.17511 1.23266C8.59435 0 11.7613 0 18.0952 0H31.9048C38.2387 0 41.4057 0 43.8249 1.23266C45.9529 2.31695 47.6831 4.04708 48.7673 6.17511C50 8.59435 50 11.7613 50 18.0952V31.9048C50 38.2387 50 41.4057 48.7673 43.8249C47.6831 45.9529 45.9529 47.6831 43.8249 48.7673C41.4057 50 38.2387 50 31.9048 50H18.0952C11.7613 50 8.59435 50 6.17511 48.7673C4.04708 47.6831 2.31695 45.9529 1.23266 43.8249C0 41.4057 0 38.2387 0 31.9048V18.0952Z" fill="#242424"/>
<path d="M14.0477 25.7145C7.08346 30.8402 5.71436 38.3336 5.71436 44.5836C6.03182 42.7185 7.48817 38.3455 10.7739 35.774C15.6548 31.9542 24.5834 33.2126 34.3453 26.7264C44.1073 20.2403 45.0596 11.7859 43.8096 5.29785C42.9411 11.5584 39.9772 14.2868 35.8929 16.7264C27.0239 22.024 21.4882 20.2383 14.0477 25.7145Z" fill="url(#paint0_linear_5453_2660)"/>
<path d="M14.0477 25.7145C7.08346 30.8402 5.71436 38.3336 5.71436 44.5836C6.03182 42.7185 7.48817 38.3455 10.7739 35.774C15.6548 31.9542 24.5834 33.2126 34.3453 26.7264C44.1073 20.2403 45.0596 11.7859 43.8096 5.29785C42.9411 11.5584 39.9772 14.2868 35.8929 16.7264C27.0239 22.024 21.4882 20.2383 14.0477 25.7145Z" fill="url(#paint1_linear_5453_2660)"/>
<path d="M5.79736 42.021C6.17952 36.3737 8.01321 30.155 14.0474 25.7139C17.9263 22.8591 21.2875 21.9778 24.8732 21.0377C26.9657 20.4891 29.1347 19.9204 31.5276 18.9277C30.6546 19.7615 26.5062 21.708 23.377 23.0085C20.2561 24.3056 16.9657 25.6731 14.226 27.4996C8.72923 31.1641 6.4942 37.5398 5.79736 42.021Z" fill="url(#paint2_linear_5453_2660)"/>
<path d="M5.79736 42.021C6.17952 36.3737 8.01321 30.155 14.0474 25.7139C17.9263 22.8591 21.2875 21.9778 24.8732 21.0377C26.9657 20.4891 29.1347 19.9204 31.5276 18.9277C30.6546 19.7615 26.5062 21.708 23.377 23.0085C20.2561 24.3056 16.9657 25.6731 14.226 27.4996C8.72923 31.1641 6.4942 37.5398 5.79736 42.021Z" fill="url(#paint3_linear_5453_2660)"/>
<path d="M39.6746 22.0912C38.9901 22.7616 38.227 23.3618 37.3811 23.8694C33.5716 26.1551 29.5224 26.8922 25.5823 27.6095C22.4427 28.181 19.3723 28.74 16.5478 30.0598C10.1791 33.0358 6.25066 39.2257 5.71454 44.5826C5.7145 44.5828 5.71446 44.583 5.71442 44.5833C5.7144 44.5823 5.71438 44.5813 5.71436 44.5804C5.71439 44.1715 5.72028 43.7572 5.73322 43.3387C5.76567 42.6747 5.83432 41.939 5.94791 41.1544C6.78869 36.7489 9.07542 30.9342 14.2263 27.5003C16.4068 26.0466 18.9362 24.8836 21.4513 23.8155C23.6632 23.0893 25.6566 22.6374 27.5559 22.2068C30.5457 21.5289 33.3021 20.904 36.3097 19.3455C42.6205 16.0754 44.2739 9.3553 43.8295 5.40234C44.7731 10.4111 44.3916 16.5716 39.6746 22.0912Z" fill="url(#paint4_linear_5453_2660)"/>
<path d="M39.6743 22.0908C38.9899 22.7612 38.2268 23.3614 37.381 23.8689C33.5714 26.1546 29.5222 26.8917 25.5822 27.609C22.4425 28.1805 19.3721 28.7395 16.5476 30.0594C12.885 31.7709 10.0295 34.5453 8.16211 37.613C9.80976 35.2978 12.3198 32.7114 15.4167 31.726C18.4385 30.7645 21.3209 30.6652 24.3154 30.562C25.1737 30.5324 26.0412 30.5025 26.9238 30.4519C29.3025 29.5859 31.7954 28.4201 34.3452 26.726C36.5429 25.2658 38.2942 23.7057 39.6743 22.0908Z" fill="url(#paint5_linear_5453_2660)"/>
<path d="M39.6743 22.0908C38.9899 22.7612 38.2268 23.3614 37.381 23.8689C33.5714 26.1546 29.5222 26.8917 25.5822 27.609C22.4425 28.1805 19.3721 28.7395 16.5476 30.0594C12.885 31.7709 10.0295 34.5453 8.16211 37.613C9.80976 35.2978 12.3198 32.7114 15.4167 31.726C18.4385 30.7645 21.3209 30.6652 24.3154 30.562C25.1737 30.5324 26.0412 30.5025 26.9238 30.4519C29.3025 29.5859 31.7954 28.4201 34.3452 26.726C36.5429 25.2658 38.2942 23.7057 39.6743 22.0908Z" fill="url(#paint6_linear_5453_2660)"/>
<path d="M43.8293 5.40227C43.8228 5.36741 43.8161 5.3326 43.8094 5.29785C42.9409 11.5584 39.9771 14.2868 35.8928 16.7264C34.3456 17.6506 32.8998 18.3592 31.5277 18.9284C30.6545 19.7623 26.5062 21.7086 23.3772 23.0091L23.3767 23.0093C22.7398 23.274 22.096 23.5416 21.4512 23.8154C23.663 23.0892 25.6565 22.6373 27.5557 22.2067C30.5455 21.5288 33.3019 20.9039 36.3095 19.3455C42.6203 16.0753 44.2738 9.35522 43.8293 5.40227Z" fill="url(#paint7_linear_5453_2660)"/>
<path d="M43.8293 5.40227C43.8228 5.36741 43.8161 5.3326 43.8094 5.29785C42.9409 11.5584 39.9771 14.2868 35.8928 16.7264C34.3456 17.6506 32.8998 18.3592 31.5277 18.9284C30.6545 19.7623 26.5062 21.7086 23.3772 23.0091L23.3767 23.0093C22.7398 23.274 22.096 23.5416 21.4512 23.8154C23.663 23.0892 25.6565 22.6373 27.5557 22.2067C30.5455 21.5288 33.3019 20.9039 36.3095 19.3455C42.6203 16.0753 44.2738 9.35522 43.8293 5.40227Z" fill="url(#paint8_linear_5453_2660)"/>
<defs>
<linearGradient id="paint0_linear_5453_2660" x1="27.5001" y1="28.9288" x2="6.90483" y2="43.6907" gradientUnits="userSpaceOnUse">
<stop stop-color="#FE5004"/>
<stop offset="0.602538" stop-color="#FFB915"/>
<stop offset="1" stop-color="#FFFC41"/>
</linearGradient>
<linearGradient id="paint1_linear_5453_2660" x1="19.3453" y1="30.1788" x2="19.4644" y2="32.3217" gradientUnits="userSpaceOnUse">
<stop stop-color="#FD3E00"/>
<stop offset="1" stop-color="#FD4400" stop-opacity="0"/>
</linearGradient>
<linearGradient id="paint2_linear_5453_2660" x1="31.5474" y1="17.8568" x2="2.49978" y2="43.6901" gradientUnits="userSpaceOnUse">
<stop stop-color="#005FC6"/>
<stop offset="0.279756" stop-color="#23A4DF"/>
<stop offset="0.465158" stop-color="#3AC2B7"/>
<stop offset="0.640642" stop-color="#60EC7A"/>
<stop offset="0.818668" stop-color="#CFFDBD"/>
<stop offset="1" stop-color="#D0FCB6"/>
</linearGradient>
<linearGradient id="paint3_linear_5453_2660" x1="25.6545" y1="22.7973" x2="23.1545" y2="20.5354" gradientUnits="userSpaceOnUse">
<stop stop-color="#0061CB"/>
<stop offset="1" stop-color="#067EEA" stop-opacity="0"/>
</linearGradient>
<linearGradient id="paint4_linear_5453_2660" x1="43.9286" y1="5.35745" x2="5.71436" y2="44.5241" gradientUnits="userSpaceOnUse">
<stop stop-color="#8E55F1"/>
<stop offset="0.140795" stop-color="#8B48DF"/>
<stop offset="0.274905" stop-color="#E04DD9"/>
<stop offset="0.492309" stop-color="#F496C8"/>
<stop offset="0.633104" stop-color="#FAD2BA"/>
<stop offset="0.856964" stop-color="#FEF7E5"/>
<stop offset="1" stop-color="#FFF5BF"/>
</linearGradient>
<linearGradient id="paint5_linear_5453_2660" x1="40.1785" y1="21.726" x2="8.988" y2="35.8332" gradientUnits="userSpaceOnUse">
<stop stop-color="#F41A73"/>
<stop offset="0.399909" stop-color="#FC50A3"/>
<stop offset="0.584511" stop-color="#FE9485"/>
<stop offset="0.703104" stop-color="#FFAF88"/>
<stop offset="1" stop-color="#FFC385"/>
</linearGradient>
<linearGradient id="paint6_linear_5453_2660" x1="28.9285" y1="26.0713" x2="28.988" y2="28.9284" gradientUnits="userSpaceOnUse">
<stop stop-color="#9B0008"/>
<stop offset="1" stop-color="#EA115A" stop-opacity="0"/>
</linearGradient>
<linearGradient id="paint7_linear_5453_2660" x1="43.9285" y1="8.57166" x2="15.7737" y2="26.9645" gradientUnits="userSpaceOnUse">
<stop stop-color="#231283"/>
<stop offset="0.362865" stop-color="#7053C6"/>
<stop offset="0.466353" stop-color="#7272DB"/>
<stop offset="0.634311" stop-color="#399EE9"/>
<stop offset="1" stop-color="#00CFFF"/>
</linearGradient>
<linearGradient id="paint8_linear_5453_2660" x1="36.9047" y1="17.8574" x2="38.1547" y2="19.4645" gradientUnits="userSpaceOnUse">
<stop stop-color="#3F259D" stop-opacity="0"/>
<stop offset="1" stop-color="#412DAA"/>
</linearGradient>
<clipPath id="clip0_5453_2660">
<rect width="50" height="50" fill="white"/>
</clipPath>
</defs>
</svg>
